<?xml version="1.0" encoding="UTF-8"?>
<!DOCTYPE svg PUBLIC "-//W3C//DTD SVG 1.1//EN" "http://www.w3.org/Graphics/SVG/1.1/DTD/svg11.dtd">
<!-- Creator: CorelDRAW -->
<svg xmlns="http://www.w3.org/2000/svg" xml:space="preserve" width="293mm" height="91mm" version="1.1" style="shape-rendering:geometricPrecision; text-rendering:geometricPrecision; image-rendering:optimizeQuality; fill-rule:evenodd; clip-rule:evenodd"
viewBox="0 0 29300 9100"
 xmlns:xlink="http://www.w3.org/1999/xlink"
 xmlns:xodm="http://www.corel.com/coreldraw/odm/2003">
 <defs>
  <style type="text/css">
   <![CDATA[
    .fil1 {fill:#A6C3D2}
    .fil0 {fill:#0097DA}
    .fil2 {fill:#0979B0}
   ]]>
  </style>
 </defs>
 <g id="Camada_x0020_1">
  <metadata id="CorelCorpID_0Corel-Layer"/>
  <g id="_1809935864">
   <path class="fil0" d="M27211.05 4030.06c0,153.97 -13.45,380.61 66.05,498.31 45.28,67.03 158.09,115.12 265.21,115.12l1226.86 0 0 539.82 -1337.28 0 0 -282.17c-31.82,0 -294.45,44.39 -294.45,73.61 0,286.56 59.94,466.2 355.79,466.2l1190.06 0c424.21,0 368.06,-311.83 368.06,-674.77 0,-78.73 -17.25,-198.91 -58.86,-260.12l-53 -57.43c-73.97,-63 -230.32,-75.05 -366.62,-75.05l-1079.64 0 0 -490.74 1275.94 0 0 257.64 202.7 -54.93c62.77,-18.48 54.94,5.18 54.94,-129.1 0,-237.36 -156.67,-331.25 -392.6,-331.25l-1030.56 0c-289.93,0 -392.6,117.48 -392.6,404.86z"/>
   <path class="fil0" d="M21174.91 5440.95l269.91 0 0 -1361.81c0,-42.3 -9.07,-47.5 -12.26,-85.88l24.74 36.6c116.86,210.88 343.73,496.13 494.11,695.94 39.4,52.34 70.06,97.71 108.61,149.03 32.52,43.28 190.41,283.95 231.34,283.95 88.04,0 53.66,-4.61 149.09,-133.09 36.09,-48.6 64.01,-95.88 98.58,-146.79 207.54,-305.68 378.99,-545.28 583.35,-864.34 14.08,-21.98 4.49,-8.62 15.51,-21.3 0,141.57 -12.27,237.36 -12.27,380.32l0 1067.37 294.44 0 0 -1815.75 -294.44 0 -821.99 1177.79c-10.37,-38.83 -178.65,-250.41 -215.59,-299.7l-550.32 -737.88c-128.49,-171.43 -59.64,-140.21 -362.81,-140.21l0 1815.75z"/>
   <path class="fil0" d="M10795.7 3662.01l0 1778.94 318.98 0 0 -821.99 1423.15 0 0 821.99 306.72 0 0 -1815.75 -306.72 0 0 736.12 -1423.15 0 0 -736.12c-180.06,0 -318.98,-28.01 -318.98,36.81z"/>
   <path class="fil0" d="M24352.48 5048.36c0,118.73 28.53,230.44 83.36,296.96 49.32,59.83 177,95.63 284.69,95.63l1190.06 0c248.32,0 368.05,-109.87 368.05,-355.78l0 -1459.97 -306.71 0 0 1558.11 -1312.74 0 0 -1558.11 -306.71 0 0 1423.16z"/>
   <path class="fil0" d="M14562.15 3846.04c34.73,25.44 42.11,62.93 65.38,106.38l425.36 801.49 -956.94 0 353.41 -677.14c27.92,-45.86 101.15,-180.76 112.79,-230.73zm-1128.71 1594.91l294.45 0 233.1 -441.67 1226.86 0c10.14,43.53 210.85,398.8 220.83,441.67l343.52 0 -949.85 -1712.42c-77.46,-130.62 -0.24,-103.33 -362.88,-103.33 -42.5,0 -102.16,150.6 -135.5,208.02 -109.35,188.29 -282.94,534.69 -377.42,689.96 -45.82,75.31 -76.95,143.35 -121.12,222.39 -43.03,76.99 -89.26,153.22 -126.62,229.18l-186.4 341.15c-23.93,39.26 -47.94,77.68 -58.97,125.05z"/>
   <path class="fil0" d="M19408.24 3858.3l134.86 220.93c20.8,41.93 41.01,70.62 61.6,110.17l294.28 564.51 -956.95 0 114.56 -216.7c20.84,-42.1 37.24,-76.67 57.05,-114.71 20.58,-39.55 40.79,-68.23 61.59,-110.16l175.61 -339.67c22.57,-45.07 46.87,-69.16 57.4,-114.37zm-1128.71 1582.65l306.71 0c18.11,-77.72 130.97,-260.36 171.76,-343.52 15.63,-31.88 34.47,-98.15 73.61,-98.15l1177.79 0c39.2,0 57.89,66.22 73.63,98.13 19.16,38.87 36.18,72.29 57.23,114.53 34.9,70.01 101.14,171.64 114.51,229.01l343.52 0c-147.78,-279.28 -373.52,-652.59 -507.13,-916.02 -121.44,-239.42 -308.05,-545.38 -441.62,-797.51 -72.1,-136.09 -17.1,-102.22 -363.99,-102.22 -40.51,0 -55.13,64.4 -74.17,97.59l-248.74 450.57c-146.08,261.39 -285.63,540.94 -437.2,801.93 -43.63,75.15 -80.13,156.87 -123.77,232.01l-122.14 233.65z"/>
   <path class="fil0" d="M8329.71 3846.04c0,28.27 8.54,36.8 36.81,36.8l797.45 0 0 1558.11 306.72 0 0 -1558.11 797.46 0c60.5,0 36.8,-96.73 36.8,-257.64l-1975.24 0 0 220.84z"/>
   <polygon class="fil0" points="16328.83,5440.95 18009.62,5440.95 18009.62,5183.31 16647.81,5183.31 16647.81,3625.2 16328.83,3625.2 "/>
  </g>
  <path class="fil1" d="M4488.04 4450.49l2730.36 -1280.14 0 2993.79 -1391.34 878.94c-209.19,124.9 -478,309.53 -691.25,439.55l-606.9 384.73c-21.46,13.78 -73.21,48.31 -94.01,53.87l60.14 -4283.39 -745.84 -7.79 -18.87 4291.18 -869.44 -548.42c-23.43,-13.99 -43.37,-29.19 -68.28,-44.78l-1821.76 -1153.13c-33.41,-24.92 -24.74,-43.8 -24.15,-97.6l0.13 -1078.74c0,-635 0,-1169.28 0,-1804.26l2772.51 1283.57 29.86 -847.82 -2576.21 -1241.03c41.18,-9.6 140.93,-66.12 182.66,-86.99 60.44,-30.21 116.87,-58.44 179.77,-89.88l2371.79 -1185.89c35.53,-17.76 158.88,-89.09 185.56,-85.47 18.52,2.5 318.24,157.62 359.53,178.25l2189.11 1098.91c54.29,27.14 338.91,160.33 359.54,188.47l-2505.91 1231.42 -7 812.65zm-4237.09 -2174.55l0 4096.96c0,108.17 70.48,207.68 134,257.43 59.9,46.9 122.22,78.57 179.23,116.52l1522.15 965.6c20.13,13.31 37.62,22.61 59.2,36.46 21.35,13.7 34.87,24.35 57.56,38.16 46.05,28.1 77.11,48.76 123.12,76.94 44.1,27.01 78.82,49.98 121.86,78.19l846.94 536.12c154.15,92.3 494.65,325.05 612.09,388.23 190.07,102.21 321.89,25.52 470.5,-71.9 311.83,-204.37 679.9,-421.69 979.43,-621.08 226.67,-150.91 510.49,-316.11 734.01,-466.37 82.86,-55.7 162.42,-98.98 245.39,-154.75 83.04,-55.83 161.66,-101.12 245.3,-154.8 221.75,-142.27 531.27,-329.34 734.1,-466.3 84.27,-56.91 421.51,-254.46 483.27,-317 80.93,-81.92 123.89,-145.08 123.89,-284.95l0 -4027.37c0,-105.47 -36.55,-188.86 -103.14,-262.21 -59.2,-65.25 -625.64,-332.68 -729.02,-384.37 -331.57,-165.78 -656.73,-328.36 -985.83,-492.91l-1722.29 -861.14c-279.86,-139.94 -306.51,-142.5 -585.68,-2.9 -84.64,42.31 -158.93,79.45 -243.58,121.77l-2945.86 1472.93c-152.6,76.31 -356.64,142.28 -356.64,382.74z"/>
  <polygon class="fil2" points="4008.28,8933.85 4004.92,2232.29 2137.6,2228.91 844.57,3277.19 3020.05,3281.07 3027.15,7039.63 "/>
  <polygon class="fil0" points="4251.8,8936.85 4260.12,2230.76 6155.92,2230.76 7343.99,3281.4 5226.97,3281.45 5274.29,7039.35 "/>
  <polygon class="fil2" points="250.95,2275.94 250.95,6372.9 568.58,6278.83 568.58,2545.73 "/>
  <polygon class="fil0" points="7920.07,2281.33 7920.07,6378.29 7602.44,6284.23 7602.44,2551.13 "/>
 </g>
</svg>
